<?xml version="1.0" standalone="no"?>
<!DOCTYPE svg PUBLIC "-//W3C//DTD SVG 20010904//EN"
 "http://www.w3.org/TR/2001/REC-SVG-20010904/DTD/svg10.dtd">
<svg version="1.0" xmlns="http://www.w3.org/2000/svg"
 width="512.000000pt" height="512.000000pt" viewBox="0 0 512.000000 512.000000"
 preserveAspectRatio="xMidYMid meet">

<g transform="translate(0.000000,512.000000) scale(0.100000,-0.100000)"
fill="#000000" stroke="none">
<path d="M2335 5109 c-485 -42 -954 -228 -1355 -537 -109 -84 -348 -323 -432
-432 -261 -339 -428 -708 -503 -1114 -133 -726 46 -1453 503 -2046 79 -102
309 -334 411 -414 641 -507 1451 -681 2242 -481 644 163 1216 594 1560 1177
499 843 469 1911 -77 2719 -98 146 -170 235 -289 358 -536 554 -1290 836
-2060 770z m340 -937 c84 -43 135 -121 143 -219 4 -60 6 -63 37 -73 53 -18
110 -66 139 -120 37 -69 38 -127 3 -306 -15 -78 -27 -145 -27 -148 0 -3 112
-6 248 -6 183 0 252 -3 264 -12 25 -20 260 -624 253 -649 -4 -11 -18 -24 -31
-29 -23 -9 -24 -13 -24 -117 0 -123 -16 -171 -69 -215 l-31 -27 0 -610 0 -611
173 0 c140 0 177 -3 195 -16 24 -17 30 -62 10 -82 -17 -17 -2779 -17 -2796 0
-20 20 -14 65 10 82 18 13 55 16 195 16 l173 0 0 611 0 610 -31 27 c-53 44
-69 92 -69 215 0 104 -1 108 -24 117 -13 5 -27 18 -31 29 -7 25 228 629 253
649 12 9 81 12 265 12 l249 0 -7 43 c-4 23 -18 98 -31 167 -28 141 -26 179 15
254 28 52 81 98 135 116 32 10 34 13 38 73 10 116 78 202 188 238 41 14 142 3
185 -19z"/>
<path d="M2482 4070 c-53 -32 -74 -75 -69 -143 3 -51 8 -62 40 -95 36 -36 40
-37 106 -37 60 0 73 3 96 25 108 100 48 270 -95 270 -27 0 -58 -8 -78 -20z"/>
<path d="M2282 3773 c-48 -23 -75 -67 -80 -130 l-4 -53 150 0 c142 0 151 1
157 20 13 41 -4 75 -42 89 -20 8 -55 31 -78 52 -47 44 -56 45 -103 22z"/>
<path d="M2741 3756 c-19 -19 -54 -43 -77 -53 -46 -19 -62 -51 -49 -93 6 -19
15 -20 156 -20 l149 0 0 41 c0 76 -49 141 -117 155 -23 4 -34 -1 -62 -30z"/>
<path d="M2230 3472 c0 -4 18 -109 40 -232 22 -124 40 -228 40 -232 0 -5 113
-8 250 -8 138 0 250 3 250 8 0 4 18 108 40 232 22 123 40 228 40 232 0 4 -148
8 -330 8 -181 0 -330 -4 -330 -8z"/>
<path d="M1701 3182 c-6 -10 -50 -121 -99 -245 l-90 -227 1048 0 1048 0 -90
227 c-49 124 -93 235 -99 245 -9 17 -27 18 -239 18 -127 0 -230 -1 -230 -3 0
-2 -11 -66 -25 -143 -17 -98 -30 -143 -42 -151 -13 -10 -94 -13 -323 -13 -229
0 -310 3 -323 13 -12 8 -25 53 -42 151 -14 77 -25 141 -25 143 0 2 -103 3
-230 3 -212 0 -230 -1 -239 -18z"/>
<path d="M1542 2494 c4 -106 4 -106 37 -136 29 -26 39 -30 75 -25 27 4 49 15
63 32 21 23 23 37 23 131 l0 104 -101 0 -101 0 4 -106z"/>
<path d="M1850 2499 c0 -111 7 -132 50 -154 36 -19 63 -19 99 -1 40 21 51 56
51 161 l0 95 -100 0 -100 0 0 -101z"/>
<path d="M2152 2494 c4 -98 7 -107 32 -132 36 -37 103 -38 140 -3 25 23 26 29
26 133 l0 108 -101 0 -102 0 5 -106z"/>
<path d="M2460 2506 c0 -111 9 -140 49 -161 37 -19 64 -19 100 -1 40 21 51 56
51 161 l0 95 -100 0 -100 0 0 -94z"/>
<path d="M2770 2496 c0 -96 2 -107 24 -133 20 -23 32 -28 70 -28 36 0 51 6 72
27 25 25 28 34 32 132 l5 106 -102 0 -101 0 0 -104z"/>
<path d="M3070 2505 c0 -105 11 -140 51 -161 36 -18 63 -18 100 1 40 21 49 50
49 161 l0 94 -100 0 -100 0 0 -95z"/>
<path d="M3380 2496 c0 -94 2 -108 23 -131 14 -17 36 -28 63 -32 36 -5 46 -1
75 25 33 30 33 30 37 136 l4 106 -101 0 -101 0 0 -104z"/>
<path d="M1761 2263 c-19 -13 -46 -26 -60 -29 -14 -3 -32 -7 -38 -10 -10 -3
-13 -131 -13 -599 l0 -595 89 0 90 0 3 303 3 302 33 67 c36 73 86 123 161 160
64 32 195 32 263 1 66 -30 133 -96 165 -162 l28 -56 3 -307 3 -308 490 0 489
0 0 595 c0 468 -3 596 -12 599 -7 3 -25 7 -39 10 -14 3 -41 16 -60 29 l-34 23
-38 -24 c-73 -48 -186 -44 -242 8 -23 21 -26 22 -42 8 -36 -32 -89 -51 -138
-51 -49 0 -102 19 -138 51 -16 14 -19 13 -42 -8 -13 -12 -47 -29 -75 -36 -61
-16 -137 0 -175 36 -23 21 -26 22 -42 8 -36 -32 -89 -51 -138 -51 -49 0 -102
19 -138 51 -16 14 -19 13 -42 -8 -56 -52 -169 -56 -242 -8 l-38 24 -34 -23z
m1513 -425 c14 -19 16 -63 16 -283 0 -220 -2 -264 -16 -283 -15 -22 -17 -22
-294 -22 -277 0 -279 0 -294 22 -14 19 -16 63 -16 283 0 220 2 264 16 283 15
22 17 22 294 22 277 0 279 0 294 -22z"/>
<path d="M2780 1555 l0 -205 200 0 200 0 0 205 0 205 -200 0 -200 0 0 -205z
m303 47 c55 -93 57 -127 10 -138 -37 -10 -52 3 -100 82 -46 77 -51 99 -26 126
34 38 63 20 116 -70z m-178 -48 c9 -4 25 -24 36 -46 19 -37 19 -41 4 -64 -23
-36 -63 -29 -92 15 -28 42 -29 55 -3 81 21 21 29 23 55 14z"/>
<path d="M2064 1761 c-48 -22 -101 -82 -114 -131 -6 -19 -10 -162 -10 -317 l0
-283 220 0 220 0 0 295 c0 321 -1 326 -59 388 -61 67 -171 87 -257 48z m218
-288 c25 -22 25 -102 0 -133 -15 -18 -25 -22 -46 -16 -33 8 -50 47 -43 101 8
59 51 83 89 48z"/>
</g>
</svg>
